<svg xmlns="http://www.w3.org/2000/svg" viewBox="0 0 180 260" fill="none"><path d="M73 31h42v18H73z" fill="#d71920"/><path d="M91 18h28v13H91z" fill="#222"/><path d="M114 19c15-5 25-2 34 8l-5 7c-8-8-16-10-29-5" stroke="#d71920" stroke-width="7" stroke-linecap="round"/><path d="M126 31c19 0 28 7 32 19" stroke="#222" stroke-width="6" stroke-linecap="round"/><rect x="38" y="45" width="103" height="184" rx="25" fill="#d71920"/><rect x="47" y="57" width="85" height="165" rx="20" fill="#ef2b31"/><path d="M62 79h56M62 91h56" stroke="#fff" stroke-width="5" stroke-linecap="round" opacity=".9"/><path d="M70 115h40v55H70z" fill="#fff" opacity=".96"/><path d="M79 127h22v31H79z" fill="#d71920"/><path d="M78 191h25" stroke="#fff" stroke-width="5" stroke-linecap="round"/><circle cx="89" cy="209" r="7" fill="#fff"/><path d="M38 89H22c-8 0-12 6-12 14v34" stroke="#222" stroke-width="7" stroke-linecap="round"/><path d="M10 137h21" stroke="#222" stroke-width="7" stroke-linecap="round"/></svg>